<svg width="800" height="500" xmlns="http://www.w3.org/2000/svg">
  <defs>
    <linearGradient id="bg" x1="0" y1="0" x2="1" y2="1">
      <stop offset="0%" stop-color="#0a0a0a"/>
      <stop offset="100%" stop-color="#171717"/>
    </linearGradient>
  </defs>
  <rect width="800" height="500" fill="url(#bg)"/>
  <g stroke="rgba(255,255,255,0.06)" stroke-width="1">
    <line x1="100" y1="0" x2="100" y2="500"/>
    <line x1="200" y1="0" x2="200" y2="500"/>
    <line x1="300" y1="0" x2="300" y2="500"/>
    <line x1="400" y1="0" x2="400" y2="500"/>
    <line x1="500" y1="0" x2="500" y2="500"/>
    <line x1="600" y1="0" x2="600" y2="500"/>
    <line x1="700" y1="0" x2="700" y2="500"/>
    <line x1="0" y1="100" x2="800" y2="100"/>
    <line x1="0" y1="200" x2="800" y2="200"/>
    <line x1="0" y1="250" x2="800" y2="250"/>
    <line x1="0" y1="300" x2="800" y2="300"/>
    <line x1="0" y1="400" x2="800" y2="400"/>
  </g>
  <g stroke="rgba(139,92,246,0.3)" stroke-width="0.8" stroke-dasharray="6,4">
    <line x1="250" y1="120" x2="550" y2="120"/>
    <line x1="250" y1="380" x2="550" y2="380"/>
    <line x1="250" y1="120" x2="250" y2="380"/>
    <line x1="550" y1="120" x2="550" y2="380"/>
    <line x1="250" y1="120" x2="550" y2="380"/>
    <line x1="550" y1="120" x2="250" y2="380"/>
  </g>
  <g fill="rgba(139,92,246,0.8)">
    <circle cx="250" cy="120" r="4"/>
    <circle cx="550" cy="120" r="4"/>
    <circle cx="250" cy="380" r="4"/>
    <circle cx="550" cy="380" r="4"/>
    <circle cx="400" cy="250" r="4"/>
    <circle cx="400" cy="120" r="4"/>
    <circle cx="400" cy="380" r="4"/>
  </g>
  <g stroke="rgba(236,72,153,0.5)" stroke-width="1">
    <line x1="250" y1="120" x2="300" y2="170"/>
    <line x1="550" y1="120" x2="500" y2="170"/>
    <circle cx="300" cy="170" r="3" fill="rgba(236,72,153,0.6)"/>
    <circle cx="500" cy="170" r="3" fill="rgba(236,72,153,0.6)"/>
  </g>
  <path d="M325 180 L400 140 L475 180 L460 300 L340 300 Z" fill="none" stroke="rgba(255,255,255,0.15)" stroke-width="1.5"/>
  <text x="400" y="460" text-anchor="middle" fill="rgba(255,255,255,0.25)" font-family="monospace" font-size="12" letter-spacing="3">GRID MACHINE</text>
</svg>
