<svg width="503" height="270" viewBox="0 0 503 270" fill="none" xmlns="http://www.w3.org/2000/svg">
<path d="M32.6102 0H68.6808C73.8277 0 78 4.17232 78 9.31915V53.6809C78 58.8277 73.8277 63 68.6808 63H9.31915C4.17233 63 0 58.8277 0 53.6808V25.3419C0 22.2741 1.50984 19.4028 4.03732 17.6641L27.3284 1.64134C28.8823 0.572326 30.7241 0 32.6102 0Z" fill="#FF6038"/>
<path d="M32.6102 138H68.6808C73.8277 138 78 142.172 78 147.319V191.681C78 196.828 73.8277 201 68.6808 201H9.31915C4.17233 201 0 196.828 0 191.681V163.342C0 160.274 1.50984 157.403 4.03732 155.664L27.3284 139.641C28.8823 138.572 30.7241 138 32.6102 138Z" fill="#FF6038"/>
<path d="M45.3898 69H9.31915C4.17233 69 0 73.1723 0 78.3191V122.681C0 127.828 4.17233 132 9.31915 132H68.6808C73.8277 132 78 127.828 78 122.681V94.3419C78 91.2741 76.4902 88.4028 73.9627 86.6641L50.6716 70.6413C49.1177 69.5723 47.2759 69 45.3898 69Z" fill="#FF6038"/>
<path d="M45.3898 207H9.31915C4.17233 207 0 211.172 0 216.319V260.681C0 265.828 4.17233 270 9.31915 270H68.6808C73.8277 270 78 265.828 78 260.681V232.342C78 229.274 76.4902 226.403 73.9627 224.664L50.6716 208.641C49.1177 207.572 47.2759 207 45.3898 207Z" fill="#FF6038"/>
<path d="M117.61 270H153.681C158.828 270 163 265.828 163 260.681V216.319C163 211.172 158.828 207 153.681 207H94.3192C89.1723 207 85 211.172 85 216.319V244.658C85 247.726 86.5098 250.597 89.0373 252.336L112.328 268.359C113.882 269.428 115.724 270 117.61 270Z" fill="#FF6038"/>
<path d="M117.61 132H153.681C158.828 132 163 127.828 163 122.681V78.3192C163 73.1723 158.828 69 153.681 69H94.3192C89.1723 69 85 73.1723 85 78.3192V106.658C85 109.726 86.5098 112.597 89.0373 114.336L112.328 130.359C113.882 131.428 115.724 132 117.61 132Z" fill="#FF6038"/>
<path d="M130.39 201H94.3192C89.1723 201 85 196.828 85 191.681V147.319C85 142.172 89.1723 138 94.3192 138H153.681C158.828 138 163 142.172 163 147.319V175.658C163 178.726 161.49 181.597 158.963 183.336L135.672 199.359C134.118 200.428 132.276 201 130.39 201Z" fill="#FF6038"/>
<path d="M130.39 63H94.3192C89.1723 63 85 58.8277 85 53.6809V9.31915C85 4.17233 89.1723 0 94.3192 0H153.681C158.828 0 163 4.17233 163 9.31916V37.6581C163 40.7259 161.49 43.5972 158.963 45.3359L135.672 61.3587C134.118 62.4277 132.276 63 130.39 63Z" fill="#FF6038"/>
<path d="M202.61 0H238.681C243.828 0 248 4.17232 248 9.31915V53.6809C248 58.8277 243.828 63 238.681 63H179.319C174.172 63 170 58.8277 170 53.6808V25.3419C170 22.2741 171.51 19.4028 174.037 17.6641L197.328 1.64134C198.882 0.572326 200.724 0 202.61 0Z" fill="#FF6038"/>
<path d="M372.61 0H408.681C413.828 0 418 4.17232 418 9.31915V53.6809C418 58.8277 413.828 63 408.681 63H349.319C344.172 63 340 58.8277 340 53.6808V25.3419C340 22.2741 341.51 19.4028 344.037 17.6641L367.328 1.64134C368.882 0.572326 370.724 0 372.61 0Z" fill="#FF6038"/>
<path d="M202.61 138H238.681C243.828 138 248 142.172 248 147.319V191.681C248 196.828 243.828 201 238.681 201H179.319C174.172 201 170 196.828 170 191.681V163.342C170 160.274 171.51 157.403 174.037 155.664L197.328 139.641C198.882 138.572 200.724 138 202.61 138Z" fill="#FF6038"/>
<path d="M372.61 138H408.681C413.828 138 418 142.172 418 147.319V191.681C418 196.828 413.828 201 408.681 201H349.319C344.172 201 340 196.828 340 191.681V163.342C340 160.274 341.51 157.403 344.037 155.664L367.328 139.641C368.882 138.572 370.724 138 372.61 138Z" fill="#FF6038"/>
<path d="M215.39 69H179.319C174.172 69 170 73.1723 170 78.3191V122.681C170 127.828 174.172 132 179.319 132H238.681C243.828 132 248 127.828 248 122.681V94.3419C248 91.2741 246.49 88.4028 243.963 86.6641L220.672 70.6413C219.118 69.5723 217.276 69 215.39 69Z" fill="#FF6038"/>
<path d="M385.39 69H349.319C344.172 69 340 73.1723 340 78.3191V122.681C340 127.828 344.172 132 349.319 132H408.681C413.828 132 418 127.828 418 122.681V94.3419C418 91.2741 416.49 88.4028 413.963 86.6641L390.672 70.6413C389.118 69.5723 387.276 69 385.39 69Z" fill="#FF6038"/>
<path d="M215.39 207H179.319C174.172 207 170 211.172 170 216.319V260.681C170 265.828 174.172 270 179.319 270H238.681C243.828 270 248 265.828 248 260.681V232.342C248 229.274 246.49 226.403 243.963 224.664L220.672 208.641C219.118 207.572 217.276 207 215.39 207Z" fill="#FF6038"/>
<path d="M385.39 207H349.319C344.172 207 340 211.172 340 216.319V260.681C340 265.828 344.172 270 349.319 270H408.681C413.828 270 418 265.828 418 260.681V232.342C418 229.274 416.49 226.403 413.963 224.664L390.672 208.641C389.118 207.572 387.276 207 385.39 207Z" fill="#FF6038"/>
<path d="M287.61 270H323.681C328.828 270 333 265.828 333 260.681V216.319C333 211.172 328.828 207 323.681 207H264.319C259.172 207 255 211.172 255 216.319V244.658C255 247.726 256.51 250.597 259.037 252.336L282.328 268.359C283.882 269.428 285.724 270 287.61 270Z" fill="#FF6038"/>
<path d="M457.61 270H493.681C498.828 270 503 265.828 503 260.681V216.319C503 211.172 498.828 207 493.681 207H434.319C429.172 207 425 211.172 425 216.319V244.658C425 247.726 426.51 250.597 429.037 252.336L452.328 268.359C453.882 269.428 455.724 270 457.61 270Z" fill="#FF6038"/>
<path d="M287.61 132H323.681C328.828 132 333 127.828 333 122.681V78.3192C333 73.1723 328.828 69 323.681 69H264.319C259.172 69 255 73.1723 255 78.3192V106.658C255 109.726 256.51 112.597 259.037 114.336L282.328 130.359C283.882 131.428 285.724 132 287.61 132Z" fill="#FF6038"/>
<path d="M457.61 132H493.681C498.828 132 503 127.828 503 122.681V78.3192C503 73.1723 498.828 69 493.681 69H434.319C429.172 69 425 73.1723 425 78.3192V106.658C425 109.726 426.51 112.597 429.037 114.336L452.328 130.359C453.882 131.428 455.724 132 457.61 132Z" fill="#FF6038"/>
<path d="M300.39 201H264.319C259.172 201 255 196.828 255 191.681V147.319C255 142.172 259.172 138 264.319 138H323.681C328.828 138 333 142.172 333 147.319V175.658C333 178.726 331.49 181.597 328.963 183.336L305.672 199.359C304.118 200.428 302.276 201 300.39 201Z" fill="#FF6038"/>
<path d="M470.39 201H434.319C429.172 201 425 196.828 425 191.681V147.319C425 142.172 429.172 138 434.319 138H493.681C498.828 138 503 142.172 503 147.319V175.658C503 178.726 501.49 181.597 498.963 183.336L475.672 199.359C474.118 200.428 472.276 201 470.39 201Z" fill="#FF6038"/>
<path d="M300.39 63H264.319C259.172 63 255 58.8277 255 53.6809V9.31915C255 4.17233 259.172 0 264.319 0H323.681C328.828 0 333 4.17233 333 9.31916V37.6581C333 40.7259 331.49 43.5972 328.963 45.3359L305.672 61.3587C304.118 62.4277 302.276 63 300.39 63Z" fill="#FF6038"/>
<path d="M470.39 63H434.319C429.172 63 425 58.8277 425 53.6809V9.31915C425 4.17233 429.172 0 434.319 0H493.681C498.828 0 503 4.17233 503 9.31916V37.6581C503 40.7259 501.49 43.5972 498.963 45.3359L475.672 61.3587C474.118 62.4277 472.276 63 470.39 63Z" fill="#FF6038"/>
</svg>
